# xmcd
#
# Track frame offsets:
#	150
#	23545
#	54525
#	81895
#	121905
#	146850
#	177735
#	212010
#	233525
#	285435
#
# Disc length: 4144 seconds
#
# Revision: 1
# Processed by: cddbd v1.5.1PL0 Copyright (c) Steve Scherf et al.
# Submitted via: EasyCDDAExtractor 8.0.2.1
#
DISCID=87102e0a
DTITLE=Ozzy Osbourne - West Palm Beach 02-07-00 Disc 1
DYEAR=2000
DGENRE=Hard Rock
TTITLE0=Ozzy Medley
TTITLE1=Believer
TTITLE2=I Don't Know
TTITLE3=War Pigs
TTITLE4=Flying High Again
TTITLE5=Mr Crowley
TTITLE6=No More Tears
TTITLE7=I Don't Want To Change The World
TTITLE8=Suicide Solution
TTITLE9=Crazy Train
EXTD=
EXTT0=
EXTT1=
EXTT2=
EXTT3=
EXTT4=
EXTT5=
EXTT6=
EXTT7=
EXTT8=
EXTT9=
PLAYORDER=
